<?xml version="1.0" encoding="UTF-8"?>
<svg width="100" height="100" viewBox="0 0 100 100" xmlns="http://www.w3.org/2000/svg">
  <!-- Ballon de basketball -->
  <circle cx="50" cy="50" r="45" fill="#e65c00" stroke="#000" stroke-width="2"/>
  
  <!-- Lignes du ballon -->
  <path d="M50,5 C50,95 50,95 50,5" stroke="#000" stroke-width="2" fill="none"/>
  <path d="M5,50 C95,50 95,50 5,50" stroke="#000" stroke-width="2" fill="none"/>
  <path d="M15,15 C85,85 85,85 15,15" stroke="#000" stroke-width="2" fill="none"/>
  <path d="M15,85 C85,15 85,15 15,85" stroke="#000" stroke-width="2" fill="none"/>
  
  <!-- Contour des panneaux -->
  <path d="M50,5 C25,15 15,25 5,50" stroke="#000" stroke-width="2" fill="none"/>
  <path d="M50,5 C75,15 85,25 95,50" stroke="#000" stroke-width="2" fill="none"/>
  <path d="M5,50 C15,75 25,85 50,95" stroke="#000" stroke-width="2" fill="none"/>
  <path d="M95,50 C85,75 75,85 50,95" stroke="#000" stroke-width="2" fill="none"/>
</svg>
